<?xml version="1.0" encoding="utf-8"?>
<!-- Generator: Adobe Illustrator 24.3.0, SVG Export Plug-In . SVG Version: 6.00 Build 0)  -->
<svg version="1.1" id="Layer_1" xmlns="http://www.w3.org/2000/svg" xmlns:xlink="http://www.w3.org/1999/xlink" x="0px" y="0px"
	 viewBox="0 0 251 87" style="enable-background:new 0 0 251 87;" xml:space="preserve">
<style type="text/css">
	.st0{fill:#FFFFFF;}
	.st1{fill:#00B67A;}
	.st2{fill:#005128;}
</style>
<path class="st0" d="M33.1,10.98h12.74v2.36h-5.01v13.29h-2.76V13.35h-4.99v-2.36H33.1z M45.3,15.3h2.36v2.19h0.04
	c0.08-0.31,0.22-0.61,0.43-0.89c0.21-0.29,0.47-0.56,0.77-0.8c0.3-0.24,0.63-0.43,1-0.59c0.37-0.14,0.74-0.22,1.12-0.22
	c0.29,0,0.5,0.01,0.61,0.02c0.11,0.01,0.22,0.03,0.34,0.04v2.41c-0.18-0.03-0.36-0.06-0.54-0.08c-0.19-0.02-0.37-0.03-0.54-0.03
	c-0.42,0-0.82,0.09-1.2,0.25s-0.7,0.42-0.98,0.74c-0.28,0.33-0.5,0.73-0.67,1.22s-0.24,1.04-0.24,1.67v5.39h-2.51V15.3
	C45.29,15.3,45.3,15.3,45.3,15.3z M63.52,26.64h-2.47v-1.58h-0.04c-0.31,0.57-0.77,1.03-1.38,1.37s-1.23,0.52-1.87,0.52
	c-1.5,0-2.59-0.36-3.26-1.1s-1-1.86-1-3.35V15.3h2.51v6.95c0,0.99,0.19,1.7,0.58,2.11c0.38,0.41,0.92,0.62,1.61,0.62
	c0.53,0,0.97-0.08,1.32-0.24s0.64-0.38,0.86-0.65c0.22-0.27,0.38-0.6,0.48-0.97s0.14-0.78,0.14-1.23v-6.57h2.51
	C63.52,15.31,63.52,26.64,63.52,26.64z M67.8,23c0.08,0.73,0.36,1.24,0.83,1.54c0.49,0.29,1.07,0.44,1.74,0.44
	c0.23,0,0.5-0.02,0.8-0.06c0.3-0.03,0.59-0.11,0.84-0.21c0.27-0.1,0.48-0.25,0.66-0.45c0.17-0.2,0.24-0.45,0.23-0.77
	s-0.13-0.59-0.36-0.78c-0.22-0.21-0.5-0.36-0.84-0.5c-0.34-0.12-0.73-0.23-1.18-0.32s-0.89-0.19-1.34-0.29
	c-0.47-0.1-0.92-0.23-1.36-0.38s-0.82-0.34-1.17-0.6c-0.34-0.24-0.62-0.56-0.82-0.95c-0.21-0.39-0.31-0.86-0.31-1.44
	c0-0.62,0.16-1.13,0.46-1.55c0.3-0.42,0.69-0.75,1.14-1.01c0.47-0.25,0.98-0.43,1.54-0.54c0.57-0.1,1.11-0.15,1.62-0.15
	c0.59,0,1.16,0.07,1.69,0.19s1.02,0.32,1.46,0.61c0.43,0.28,0.79,0.64,1.08,1.08c0.29,0.44,0.47,0.98,0.54,1.61h-2.62
	c-0.12-0.6-0.39-1.01-0.82-1.2c-0.43-0.21-0.93-0.31-1.49-0.31c-0.18,0-0.39,0.01-0.63,0.04c-0.24,0.03-0.47,0.09-0.69,0.17
	c-0.21,0.08-0.39,0.2-0.54,0.35c-0.14,0.15-0.22,0.35-0.22,0.61c0,0.31,0.11,0.55,0.32,0.74c0.21,0.19,0.49,0.34,0.83,0.48
	c0.34,0.12,0.73,0.23,1.18,0.32s0.9,0.19,1.37,0.29c0.46,0.1,0.9,0.23,1.34,0.38s0.83,0.34,1.18,0.6s0.62,0.56,0.83,0.94
	s0.32,0.85,0.32,1.4c0,0.67-0.16,1.24-0.47,1.71c-0.31,0.46-0.71,0.85-1.2,1.14c-0.49,0.29-1.04,0.51-1.64,0.64s-1.2,0.2-1.79,0.2
	c-0.72,0-1.39-0.08-2-0.24s-1.14-0.41-1.59-0.73c-0.44-0.33-0.8-0.74-1.06-1.23c-0.26-0.49-0.39-1.07-0.41-1.75h2.53V23z
	 M76.09,15.3h1.9v-3.4h2.51v3.4h2.27v1.87H80.5v6.05c0,0.27,0.01,0.49,0.03,0.68c0.02,0.19,0.08,0.35,0.16,0.49
	c0.08,0.13,0.2,0.23,0.37,0.3c0.17,0.07,0.38,0.1,0.67,0.1c0.18,0,0.36,0,0.53-0.01s0.36-0.03,0.53-0.08v1.93
	c-0.28,0.03-0.56,0.06-0.81,0.09c-0.27,0.03-0.53,0.04-0.81,0.04c-0.67,0-1.2-0.07-1.6-0.19c-0.4-0.12-0.72-0.31-0.94-0.55
	c-0.23-0.24-0.38-0.54-0.47-0.91c-0.08-0.36-0.13-0.78-0.14-1.25v-6.68h-1.9V15.3C76.11,15.3,76.09,15.3,76.09,15.3z M84.54,15.3
	h2.38v1.54h0.04c0.36-0.66,0.84-1.13,1.48-1.41c0.63-0.29,1.31-0.43,2.06-0.43c0.9,0,1.68,0.15,2.34,0.48
	c0.67,0.31,1.22,0.74,1.67,1.29c0.44,0.55,0.77,1.19,0.99,1.92c0.22,0.73,0.33,1.51,0.33,2.34c0,0.76-0.1,1.5-0.3,2.21
	c-0.2,0.72-0.5,1.35-0.9,1.9c-0.4,0.55-0.91,0.98-1.53,1.31s-1.34,0.5-2.19,0.5c-0.37,0-0.73-0.03-1.1-0.1s-0.72-0.18-1.06-0.32
	c-0.33-0.14-0.66-0.33-0.93-0.56c-0.29-0.23-0.52-0.5-0.72-0.8h-0.04v5.66h-2.51C84.54,30.82,84.54,15.3,84.54,15.3z M93.32,20.98
	c0-0.51-0.07-1.01-0.2-1.49s-0.33-0.91-0.6-1.28s-0.6-0.67-0.99-0.89c-0.4-0.22-0.86-0.34-1.37-0.34c-1.06,0-1.86,0.36-2.39,1.09
	c-0.53,0.73-0.8,1.7-0.8,2.92c0,0.57,0.07,1.1,0.21,1.59c0.14,0.49,0.34,0.91,0.63,1.26c0.28,0.35,0.61,0.63,1,0.83
	c0.39,0.21,0.84,0.31,1.36,0.31c0.58,0,1.06-0.12,1.46-0.35s0.72-0.54,0.98-0.91c0.26-0.38,0.44-0.8,0.56-1.27
	C93.26,21.96,93.32,21.48,93.32,20.98z M97.75,10.98h2.51v2.36h-2.51C97.75,13.35,97.75,10.98,97.75,10.98z M97.75,15.3h2.51v11.33
	h-2.51C97.75,26.64,97.75,15.3,97.75,15.3z M102.51,10.98h2.51v15.65h-2.51C102.51,26.64,102.51,10.98,102.51,10.98z M112.72,26.94
	c-0.91,0-1.72-0.15-2.43-0.45s-1.31-0.72-1.81-1.24c-0.49-0.53-0.87-1.16-1.12-1.89c-0.26-0.73-0.39-1.54-0.39-2.41
	c0-0.86,0.13-1.66,0.39-2.39s0.63-1.36,1.12-1.89c0.49-0.53,1.1-0.94,1.81-1.24s1.52-0.45,2.43-0.45s1.72,0.15,2.43,0.45
	c0.71,0.3,1.31,0.72,1.81,1.24c0.49,0.53,0.87,1.16,1.12,1.89c0.26,0.73,0.39,1.52,0.39,2.39c0,0.87-0.13,1.68-0.39,2.41
	c-0.26,0.73-0.63,1.36-1.12,1.89s-1.1,0.94-1.81,1.24S113.63,26.94,112.72,26.94z M112.72,24.97c0.56,0,1.04-0.12,1.46-0.35
	s0.74-0.54,1.01-0.92s0.46-0.81,0.59-1.28c0.12-0.48,0.19-0.96,0.19-1.46c0-0.49-0.07-0.96-0.19-1.45
	c-0.12-0.49-0.32-0.91-0.59-1.28c-0.27-0.38-0.6-0.67-1.01-0.91s-0.9-0.35-1.46-0.35s-1.04,0.12-1.46,0.35s-0.74,0.54-1.01,0.91
	c-0.27,0.38-0.46,0.8-0.59,1.28c-0.12,0.49-0.19,0.96-0.19,1.45c0,0.5,0.07,0.98,0.19,1.46c0.12,0.48,0.32,0.91,0.59,1.28
	c0.27,0.38,0.6,0.68,1.01,0.92C111.67,24.86,112.16,24.97,112.72,24.97z M119.21,15.3h1.9v-3.4h2.51v3.4h2.27v1.87h-2.27v6.05
	c0,0.27,0.01,0.49,0.03,0.68c0.02,0.19,0.08,0.35,0.16,0.49s0.2,0.23,0.37,0.3c0.17,0.07,0.38,0.1,0.67,0.1c0.18,0,0.36,0,0.53-0.01
	s0.36-0.03,0.53-0.08v1.93c-0.28,0.03-0.56,0.06-0.81,0.09c-0.27,0.03-0.53,0.04-0.81,0.04c-0.67,0-1.2-0.07-1.6-0.19
	c-0.4-0.12-0.72-0.31-0.94-0.55c-0.23-0.24-0.38-0.54-0.47-0.91c-0.08-0.36-0.13-0.78-0.14-1.25v-6.68h-1.9V15.3
	C119.23,15.3,119.21,15.3,119.21,15.3z"/>
<path class="st1" d="M30.17,10.98H18.66L15.1,0.09l-3.57,10.89L0.03,10.97l9.32,6.74L5.78,28.59l9.32-6.73l9.31,6.73l-3.56-10.88
	C20.86,17.71,30.17,10.98,30.17,10.98z"/>
<path class="st2" d="M21.66,20.17l-0.8-2.46l-5.76,4.15L21.66,20.17z"/>
<g>
	<path class="st1" d="M50.78,86.62h46.38V40.29H50.78V86.62z"/>
	<path class="st0" d="M74.52,71.62l6.16-1.33l2.85,9l-9.66-7.2l-10.04,7.2l3.9-11.84l-10.2-7.32h12.61l3.89-11.84l3.9,11.84h12.6
		C90.53,60.13,74.52,71.62,74.52,71.62z"/>
</g>
<g>
	<path class="st1" d="M-0.53,86.62h46.38V40.29H-0.53V86.62z"/>
	<path class="st0" d="M23.21,71.62l6.16-1.33l2.85,9l-9.66-7.2l-10.04,7.2l3.9-11.84l-10.2-7.32h12.61l3.89-11.84l3.9,11.84h12.6
		C39.22,60.13,23.21,71.62,23.21,71.62z"/>
</g>
<g>
	<path class="st1" d="M102.06,86.62h46.38V40.29h-46.38V86.62z"/>
	<path class="st0" d="M125.8,71.62l6.16-1.33l2.85,9l-9.66-7.2l-10.04,7.2l3.9-11.84l-10.2-7.32h12.61l3.89-11.84l3.9,11.84h12.6
		C141.81,60.13,125.8,71.62,125.8,71.62z"/>
</g>
<g>
	<path class="st1" d="M153.29,86.62h46.38V40.29h-46.38V86.62z"/>
	<path class="st0" d="M177.04,71.62l6.16-1.33l2.85,9l-9.66-7.2l-10.04,7.2l3.9-11.84l-10.2-7.32h12.61l3.89-11.84l3.9,11.84h12.6
		C193.05,60.13,177.04,71.62,177.04,71.62z"/>
</g>
<g>
	<path class="st1" d="M204.53,86.62h46.38V40.29h-46.38V86.62z"/>
	<path class="st0" d="M228.27,71.62l6.16-1.33l2.85,9l-9.66-7.2l-10.04,7.2l3.9-11.84l-10.2-7.32h12.61l3.89-11.84l3.9,11.84h12.6
		C244.28,60.13,228.27,71.62,228.27,71.62z"/>
</g>
</svg>
